<svg id="visual" viewBox="0 0 1920 1080" width="1920" height="1080" xmlns="http://www.w3.org/2000/svg" xmlns:xlink="http://www.w3.org/1999/xlink" version="1.1"><rect x="0" y="0" width="1920" height="1080" fill="#140021"></rect><path d="M1504 0L1701 0L1701 47L1918 47L1918 94L1650 94L1650 141L1568 141L1568 188L1245 188L1245 235L1387 235L1387 282L1839 282L1839 329L1652 329L1652 376L1485 376L1485 423L1540 423L1540 470L1387 470L1387 517L1682 517L1682 563L1377 563L1377 610L1588 610L1588 657L1511 657L1511 704L1602 704L1602 751L1570 751L1570 798L1919 798L1919 845L1772 845L1772 892L1335 892L1335 939L1909 939L1909 986L1300 986L1300 1033L1786 1033L1786 1080L0 1080L0 1033L0 1033L0 986L0 986L0 939L0 939L0 892L0 892L0 845L0 845L0 798L0 798L0 751L0 751L0 704L0 704L0 657L0 657L0 610L0 610L0 563L0 563L0 517L0 517L0 470L0 470L0 423L0 423L0 376L0 376L0 329L0 329L0 282L0 282L0 235L0 235L0 188L0 188L0 141L0 141L0 94L0 94L0 47L0 47L0 0L0 0Z" fill="#9900ff"></path><path d="M1334 0L1454 0L1454 47L1176 47L1176 94L1397 94L1397 141L1089 141L1089 188L1655 188L1655 235L1429 235L1429 282L1683 282L1683 329L1380 329L1380 376L1719 376L1719 423L1450 423L1450 470L1559 470L1559 517L1406 517L1406 563L1521 563L1521 610L1247 610L1247 657L1109 657L1109 704L1646 704L1646 751L1646 751L1646 798L1388 798L1388 845L1667 845L1667 892L1271 892L1271 939L1046 939L1046 986L1549 986L1549 1033L1354 1033L1354 1080L0 1080L0 1033L0 1033L0 986L0 986L0 939L0 939L0 892L0 892L0 845L0 845L0 798L0 798L0 751L0 751L0 704L0 704L0 657L0 657L0 610L0 610L0 563L0 563L0 517L0 517L0 470L0 470L0 423L0 423L0 376L0 376L0 329L0 329L0 282L0 282L0 235L0 235L0 188L0 188L0 141L0 141L0 94L0 94L0 47L0 47L0 0L0 0Z" fill="#9300f4"></path><path d="M1217 0L1349 0L1349 47L1286 47L1286 94L1505 94L1505 141L1099 141L1099 188L1102 188L1102 235L1089 235L1089 282L1393 282L1393 329L1424 329L1424 376L1388 376L1388 423L1538 423L1538 470L1161 470L1161 517L1474 517L1474 563L1171 563L1171 610L1398 610L1398 657L1592 657L1592 704L1117 704L1117 751L1409 751L1409 798L1387 798L1387 845L1365 845L1365 892L1425 892L1425 939L1491 939L1491 986L967 986L967 1033L1211 1033L1211 1080L0 1080L0 1033L0 1033L0 986L0 986L0 939L0 939L0 892L0 892L0 845L0 845L0 798L0 798L0 751L0 751L0 704L0 704L0 657L0 657L0 610L0 610L0 563L0 563L0 517L0 517L0 470L0 470L0 423L0 423L0 376L0 376L0 329L0 329L0 282L0 282L0 235L0 235L0 188L0 188L0 141L0 141L0 94L0 94L0 47L0 47L0 0L0 0Z" fill="#8d00ea"></path><path d="M1461 0L1167 0L1167 47L902 47L902 94L889 94L889 141L945 141L945 188L1294 188L1294 235L1042 235L1042 282L914 282L914 329L916 329L916 376L1201 376L1201 423L1124 423L1124 470L904 470L904 517L1010 517L1010 563L951 563L951 610L929 610L929 657L898 657L898 704L1196 704L1196 751L1229 751L1229 798L1245 798L1245 845L1382 845L1382 892L830 892L830 939L1414 939L1414 986L1086 986L1086 1033L1195 1033L1195 1080L0 1080L0 1033L0 1033L0 986L0 986L0 939L0 939L0 892L0 892L0 845L0 845L0 798L0 798L0 751L0 751L0 704L0 704L0 657L0 657L0 610L0 610L0 563L0 563L0 517L0 517L0 470L0 470L0 423L0 423L0 376L0 376L0 329L0 329L0 282L0 282L0 235L0 235L0 188L0 188L0 141L0 141L0 94L0 94L0 47L0 47L0 0L0 0Z" fill="#8600e0"></path><path d="M1055 0L1223 0L1223 47L805 47L805 94L1228 94L1228 141L999 141L999 188L799 188L799 235L788 235L788 282L1261 282L1261 329L1287 329L1287 376L1265 376L1265 423L900 423L900 470L872 470L872 517L1067 517L1067 563L743 563L743 610L1254 610L1254 657L1091 657L1091 704L740 704L740 751L844 751L844 798L849 798L849 845L950 845L950 892L1139 892L1139 939L1065 939L1065 986L889 986L889 1033L921 1033L921 1080L0 1080L0 1033L0 1033L0 986L0 986L0 939L0 939L0 892L0 892L0 845L0 845L0 798L0 798L0 751L0 751L0 704L0 704L0 657L0 657L0 610L0 610L0 563L0 563L0 517L0 517L0 470L0 470L0 423L0 423L0 376L0 376L0 329L0 329L0 282L0 282L0 235L0 235L0 188L0 188L0 141L0 141L0 94L0 94L0 47L0 47L0 0L0 0Z" fill="#8000d5"></path><path d="M876 0L633 0L633 47L1178 47L1178 94L1066 94L1066 141L956 141L956 188L710 188L710 235L765 235L765 282L667 282L667 329L625 329L625 376L1036 376L1036 423L814 423L814 470L752 470L752 517L1074 517L1074 563L643 563L643 610L1029 610L1029 657L987 657L987 704L669 704L669 751L932 751L932 798L1052 798L1052 845L753 845L753 892L1154 892L1154 939L868 939L868 986L683 986L683 1033L725 1033L725 1080L0 1080L0 1033L0 1033L0 986L0 986L0 939L0 939L0 892L0 892L0 845L0 845L0 798L0 798L0 751L0 751L0 704L0 704L0 657L0 657L0 610L0 610L0 563L0 563L0 517L0 517L0 470L0 470L0 423L0 423L0 376L0 376L0 329L0 329L0 282L0 282L0 235L0 235L0 188L0 188L0 141L0 141L0 94L0 94L0 47L0 47L0 0L0 0Z" fill="#7a00cb"></path><path d="M804 0L924 0L924 47L771 47L771 94L979 94L979 141L784 141L784 188L698 188L698 235L725 235L725 282L730 282L730 329L974 329L974 376L994 376L994 423L766 423L766 470L766 470L766 517L835 517L835 563L769 563L769 610L650 610L650 657L992 657L992 704L896 704L896 751L971 751L971 798L1005 798L1005 845L588 845L588 892L743 892L743 939L828 939L828 986L687 986L687 1033L917 1033L917 1080L0 1080L0 1033L0 1033L0 986L0 986L0 939L0 939L0 892L0 892L0 845L0 845L0 798L0 798L0 751L0 751L0 704L0 704L0 657L0 657L0 610L0 610L0 563L0 563L0 517L0 517L0 470L0 470L0 423L0 423L0 376L0 376L0 329L0 329L0 282L0 282L0 235L0 235L0 188L0 188L0 141L0 141L0 94L0 94L0 47L0 47L0 0L0 0Z" fill="#7400c1"></path><path d="M740 0L695 0L695 47L752 47L752 94L815 94L815 141L736 141L736 188L729 188L729 235L718 235L718 282L599 282L599 329L510 329L510 376L573 376L573 423L441 423L441 470L732 470L732 517L471 517L471 563L495 563L495 610L778 610L778 657L587 657L587 704L485 704L485 751L674 751L674 798L856 798L856 845L813 845L813 892L478 892L478 939L676 939L676 986L808 986L808 1033L710 1033L710 1080L0 1080L0 1033L0 1033L0 986L0 986L0 939L0 939L0 892L0 892L0 845L0 845L0 798L0 798L0 751L0 751L0 704L0 704L0 657L0 657L0 610L0 610L0 563L0 563L0 517L0 517L0 470L0 470L0 423L0 423L0 376L0 376L0 329L0 329L0 282L0 282L0 235L0 235L0 188L0 188L0 141L0 141L0 94L0 94L0 47L0 47L0 0L0 0Z" fill="#6e00b7"></path><path d="M572 0L627 0L627 47L555 47L555 94L430 94L430 141L557 141L557 188L554 188L554 235L699 235L699 282L739 282L739 329L577 329L577 376L519 376L519 423L469 423L469 470L324 470L324 517L706 517L706 563L518 563L518 610L626 610L626 657L670 657L670 704L528 704L528 751L713 751L713 798L719 798L719 845L412 845L412 892L645 892L645 939L495 939L495 986L588 986L588 1033L346 1033L346 1080L0 1080L0 1033L0 1033L0 986L0 986L0 939L0 939L0 892L0 892L0 845L0 845L0 798L0 798L0 751L0 751L0 704L0 704L0 657L0 657L0 610L0 610L0 563L0 563L0 517L0 517L0 470L0 470L0 423L0 423L0 376L0 376L0 329L0 329L0 282L0 282L0 235L0 235L0 188L0 188L0 141L0 141L0 94L0 94L0 47L0 47L0 0L0 0Z" fill="#6800ad"></path><path d="M216 0L495 0L495 47L576 47L576 94L555 94L555 141L571 141L571 188L328 188L328 235L443 235L443 282L292 282L292 329L398 329L398 376L502 376L502 423L404 423L404 470L559 470L559 517L312 517L312 563L255 563L255 610L504 610L504 657L240 657L240 704L266 704L266 751L310 751L310 798L589 798L589 845L374 845L374 892L572 892L572 939L406 939L406 986L416 986L416 1033L408 1033L408 1080L0 1080L0 1033L0 1033L0 986L0 986L0 939L0 939L0 892L0 892L0 845L0 845L0 798L0 798L0 751L0 751L0 704L0 704L0 657L0 657L0 610L0 610L0 563L0 563L0 517L0 517L0 470L0 470L0 423L0 423L0 376L0 376L0 329L0 329L0 282L0 282L0 235L0 235L0 188L0 188L0 141L0 141L0 94L0 94L0 47L0 47L0 0L0 0Z" fill="#6200a3"></path><path d="M243 0L399 0L399 47L166 47L166 94L340 94L340 141L411 141L411 188L240 188L240 235L378 235L378 282L117 282L117 329L266 329L266 376L436 376L436 423L173 423L173 470L167 470L167 517L390 517L390 563L441 563L441 610L339 610L339 657L123 657L123 704L284 704L284 751L289 751L289 798L285 798L285 845L420 845L420 892L353 892L353 939L419 939L419 986L269 986L269 1033L304 1033L304 1080L0 1080L0 1033L0 1033L0 986L0 986L0 939L0 939L0 892L0 892L0 845L0 845L0 798L0 798L0 751L0 751L0 704L0 704L0 657L0 657L0 610L0 610L0 563L0 563L0 517L0 517L0 470L0 470L0 423L0 423L0 376L0 376L0 329L0 329L0 282L0 282L0 235L0 235L0 188L0 188L0 141L0 141L0 94L0 94L0 47L0 47L0 0L0 0Z" fill="#5c009a"></path><path d="M63 0L254 0L254 47L209 47L209 94L137 94L137 141L27 141L27 188L256 188L256 235L95 235L95 282L47 282L47 329L219 329L219 376L169 376L169 423L63 423L63 470L230 470L230 517L186 517L186 563L0 563L0 610L137 610L137 657L45 657L45 704L181 704L181 751L80 751L80 798L62 798L62 845L230 845L230 892L232 892L232 939L151 939L151 986L91 986L91 1033L10 1033L10 1080L0 1080L0 1033L0 1033L0 986L0 986L0 939L0 939L0 892L0 892L0 845L0 845L0 798L0 798L0 751L0 751L0 704L0 704L0 657L0 657L0 610L0 610L0 563L0 563L0 517L0 517L0 470L0 470L0 423L0 423L0 376L0 376L0 329L0 329L0 282L0 282L0 235L0 235L0 188L0 188L0 141L0 141L0 94L0 94L0 47L0 47L0 0L0 0Z" fill="#560090"></path></svg>