<svg id="visual" viewBox="0 0 1920 1080" width="1920" height="1080" xmlns="http://www.w3.org/2000/svg" xmlns:xlink="http://www.w3.org/1999/xlink" version="1.1"><rect x="0" y="0" width="1920" height="1080" fill="#9900FF"></rect><path d="M1342 0L1798 0L1798 47L1141 47L1141 94L1538 94L1538 141L1566 141L1566 188L1726 188L1726 235L1149 235L1149 282L1212 282L1212 329L1910 329L1910 376L1571 376L1571 423L1363 423L1363 470L1881 470L1881 517L1464 517L1464 563L1757 563L1757 610L1845 610L1845 657L1802 657L1802 704L1563 704L1563 751L1283 751L1283 798L1783 798L1783 845L1513 845L1513 892L1406 892L1406 939L1894 939L1894 986L1328 986L1328 1033L1848 1033L1848 1080L0 1080L0 1033L0 1033L0 986L0 986L0 939L0 939L0 892L0 892L0 845L0 845L0 798L0 798L0 751L0 751L0 704L0 704L0 657L0 657L0 610L0 610L0 563L0 563L0 517L0 517L0 470L0 470L0 423L0 423L0 376L0 376L0 329L0 329L0 282L0 282L0 235L0 235L0 188L0 188L0 141L0 141L0 94L0 94L0 47L0 47L0 0L0 0Z" fill="#9900ff"></path><path d="M1254 0L1323 0L1323 47L1330 47L1330 94L1737 94L1737 141L1235 141L1235 188L1638 188L1638 235L1141 235L1141 282L1506 282L1506 329L1647 329L1647 376L1603 376L1603 423L1662 423L1662 470L1544 470L1544 517L1491 517L1491 563L1502 563L1502 610L1507 610L1507 657L1122 657L1122 704L1150 704L1150 751L1470 751L1470 798L1711 798L1711 845L1619 845L1619 892L1545 892L1545 939L1410 939L1410 986L1744 986L1744 1033L1742 1033L1742 1080L0 1080L0 1033L0 1033L0 986L0 986L0 939L0 939L0 892L0 892L0 845L0 845L0 798L0 798L0 751L0 751L0 704L0 704L0 657L0 657L0 610L0 610L0 563L0 563L0 517L0 517L0 470L0 470L0 423L0 423L0 376L0 376L0 329L0 329L0 282L0 282L0 235L0 235L0 188L0 188L0 141L0 141L0 94L0 94L0 47L0 47L0 0L0 0Z" fill="#9300f4"></path><path d="M1150 0L1272 0L1272 47L1307 47L1307 94L1229 94L1229 141L1351 141L1351 188L1069 188L1069 235L994 235L994 282L1303 282L1303 329L1437 329L1437 376L1072 376L1072 423L1302 423L1302 470L1130 470L1130 517L941 517L941 563L1192 563L1192 610L1115 610L1115 657L1438 657L1438 704L1038 704L1038 751L1616 751L1616 798L1593 798L1593 845L1329 845L1329 892L1448 892L1448 939L1606 939L1606 986L1232 986L1232 1033L1570 1033L1570 1080L0 1080L0 1033L0 1033L0 986L0 986L0 939L0 939L0 892L0 892L0 845L0 845L0 798L0 798L0 751L0 751L0 704L0 704L0 657L0 657L0 610L0 610L0 563L0 563L0 517L0 517L0 470L0 470L0 423L0 423L0 376L0 376L0 329L0 329L0 282L0 282L0 235L0 235L0 188L0 188L0 141L0 141L0 94L0 94L0 47L0 47L0 0L0 0Z" fill="#8d00ea"></path><path d="M1181 0L1198 0L1198 47L903 47L903 94L1467 94L1467 141L1083 141L1083 188L984 188L984 235L935 235L935 282L1471 282L1471 329L1350 329L1350 376L978 376L978 423L1316 423L1316 470L1392 470L1392 517L1185 517L1185 563L1239 563L1239 610L1073 610L1073 657L1222 657L1222 704L1270 704L1270 751L977 751L977 798L1153 798L1153 845L1146 845L1146 892L1313 892L1313 939L1354 939L1354 986L1341 986L1341 1033L1347 1033L1347 1080L0 1080L0 1033L0 1033L0 986L0 986L0 939L0 939L0 892L0 892L0 845L0 845L0 798L0 798L0 751L0 751L0 704L0 704L0 657L0 657L0 610L0 610L0 563L0 563L0 517L0 517L0 470L0 470L0 423L0 423L0 376L0 376L0 329L0 329L0 282L0 282L0 235L0 235L0 188L0 188L0 141L0 141L0 94L0 94L0 47L0 47L0 0L0 0Z" fill="#8600e0"></path><path d="M1038 0L927 0L927 47L1047 47L1047 94L1289 94L1289 141L768 141L768 188L1304 188L1304 235L778 235L778 282L870 282L870 329L1272 329L1272 376L781 376L781 423L1225 423L1225 470L961 470L961 517L1176 517L1176 563L988 563L988 610L1014 610L1014 657L746 657L746 704L1123 704L1123 751L1091 751L1091 798L958 798L958 845L836 845L836 892L1174 892L1174 939L1223 939L1223 986L1092 986L1092 1033L865 1033L865 1080L0 1080L0 1033L0 1033L0 986L0 986L0 939L0 939L0 892L0 892L0 845L0 845L0 798L0 798L0 751L0 751L0 704L0 704L0 657L0 657L0 610L0 610L0 563L0 563L0 517L0 517L0 470L0 470L0 423L0 423L0 376L0 376L0 329L0 329L0 282L0 282L0 235L0 235L0 188L0 188L0 141L0 141L0 94L0 94L0 47L0 47L0 0L0 0Z" fill="#8000d5"></path><path d="M654 0L948 0L948 47L680 47L680 94L962 94L962 141L875 141L875 188L743 188L743 235L684 235L684 282L1050 282L1050 329L852 329L852 376L1159 376L1159 423L1134 423L1134 470L1064 470L1064 517L934 517L934 563L1044 563L1044 610L1029 610L1029 657L839 657L839 704L1063 704L1063 751L622 751L622 798L865 798L865 845L691 845L691 892L679 892L679 939L762 939L762 986L928 986L928 1033L1010 1033L1010 1080L0 1080L0 1033L0 1033L0 986L0 986L0 939L0 939L0 892L0 892L0 845L0 845L0 798L0 798L0 751L0 751L0 704L0 704L0 657L0 657L0 610L0 610L0 563L0 563L0 517L0 517L0 470L0 470L0 423L0 423L0 376L0 376L0 329L0 329L0 282L0 282L0 235L0 235L0 188L0 188L0 141L0 141L0 94L0 94L0 47L0 47L0 0L0 0Z" fill="#7a00cb"></path><path d="M726 0L1028 0L1028 47L523 47L523 94L635 94L635 141L856 141L856 188L856 188L856 235L863 235L863 282L797 282L797 329L709 329L709 376L667 376L667 423L561 423L561 470L758 470L758 517L818 517L818 563L903 563L903 610L692 610L692 657L643 657L643 704L726 704L726 751L910 751L910 798L873 798L873 845L883 845L883 892L648 892L648 939L619 939L619 986L677 986L677 1033L872 1033L872 1080L0 1080L0 1033L0 1033L0 986L0 986L0 939L0 939L0 892L0 892L0 845L0 845L0 798L0 798L0 751L0 751L0 704L0 704L0 657L0 657L0 610L0 610L0 563L0 563L0 517L0 517L0 470L0 470L0 423L0 423L0 376L0 376L0 329L0 329L0 282L0 282L0 235L0 235L0 188L0 188L0 141L0 141L0 94L0 94L0 47L0 47L0 0L0 0Z" fill="#7400c1"></path><path d="M805 0L618 0L618 47L481 47L481 94L649 94L649 141L730 141L730 188L764 188L764 235L779 235L779 282L474 282L474 329L680 329L680 376L547 376L547 423L635 423L635 470L698 470L698 517L435 517L435 563L417 563L417 610L584 610L584 657L437 657L437 704L509 704L509 751L798 751L798 798L478 798L478 845L884 845L884 892L568 892L568 939L469 939L469 986L419 986L419 1033L859 1033L859 1080L0 1080L0 1033L0 1033L0 986L0 986L0 939L0 939L0 892L0 892L0 845L0 845L0 798L0 798L0 751L0 751L0 704L0 704L0 657L0 657L0 610L0 610L0 563L0 563L0 517L0 517L0 470L0 470L0 423L0 423L0 376L0 376L0 329L0 329L0 282L0 282L0 235L0 235L0 188L0 188L0 141L0 141L0 94L0 94L0 47L0 47L0 0L0 0Z" fill="#6e00b7"></path><path d="M595 0L708 0L708 47L456 47L456 94L602 94L602 141L628 141L628 188L457 188L457 235L728 235L728 282L388 282L388 329L512 329L512 376L411 376L411 423L522 423L522 470L499 470L499 517L680 517L680 563L328 563L328 610L374 610L374 657L615 657L615 704L716 704L716 751L326 751L326 798L666 798L666 845L416 845L416 892L352 892L352 939L598 939L598 986L667 986L667 1033L332 1033L332 1080L0 1080L0 1033L0 1033L0 986L0 986L0 939L0 939L0 892L0 892L0 845L0 845L0 798L0 798L0 751L0 751L0 704L0 704L0 657L0 657L0 610L0 610L0 563L0 563L0 517L0 517L0 470L0 470L0 423L0 423L0 376L0 376L0 329L0 329L0 282L0 282L0 235L0 235L0 188L0 188L0 141L0 141L0 94L0 94L0 47L0 47L0 0L0 0Z" fill="#6800ad"></path><path d="M319 0L430 0L430 47L329 47L329 94L493 94L493 141L456 141L456 188L450 188L450 235L215 235L215 282L471 282L471 329L229 329L229 376L265 376L265 423L389 423L389 470L255 470L255 517L428 517L428 563L326 563L326 610L523 610L523 657L505 657L505 704L240 704L240 751L395 751L395 798L579 798L579 845L556 845L556 892L462 892L462 939L561 939L561 986L446 986L446 1033L270 1033L270 1080L0 1080L0 1033L0 1033L0 986L0 986L0 939L0 939L0 892L0 892L0 845L0 845L0 798L0 798L0 751L0 751L0 704L0 704L0 657L0 657L0 610L0 610L0 563L0 563L0 517L0 517L0 470L0 470L0 423L0 423L0 376L0 376L0 329L0 329L0 282L0 282L0 235L0 235L0 188L0 188L0 141L0 141L0 94L0 94L0 47L0 47L0 0L0 0Z" fill="#6200a3"></path><path d="M367 0L242 0L242 47L405 47L405 94L130 94L130 141L237 141L237 188L339 188L339 235L293 235L293 282L262 282L262 329L268 329L268 376L336 376L336 423L197 423L197 470L422 470L422 517L389 517L389 563L189 563L189 610L236 610L236 657L378 657L378 704L424 704L424 751L282 751L282 798L432 798L432 845L381 845L381 892L298 892L298 939L294 939L294 986L250 986L250 1033L413 1033L413 1080L0 1080L0 1033L0 1033L0 986L0 986L0 939L0 939L0 892L0 892L0 845L0 845L0 798L0 798L0 751L0 751L0 704L0 704L0 657L0 657L0 610L0 610L0 563L0 563L0 517L0 517L0 470L0 470L0 423L0 423L0 376L0 376L0 329L0 329L0 282L0 282L0 235L0 235L0 188L0 188L0 141L0 141L0 94L0 94L0 47L0 47L0 0L0 0Z" fill="#5c009a"></path><path d="M216 0L275 0L275 47L282 47L282 94L164 94L164 141L36 141L36 188L108 188L108 235L16 235L16 282L36 282L36 329L283 329L283 376L186 376L186 423L100 423L100 470L113 470L113 517L182 517L182 563L2 563L2 610L53 610L53 657L74 657L74 704L183 704L183 751L56 751L56 798L142 798L142 845L71 845L71 892L24 892L24 939L62 939L62 986L22 986L22 1033L227 1033L227 1080L0 1080L0 1033L0 1033L0 986L0 986L0 939L0 939L0 892L0 892L0 845L0 845L0 798L0 798L0 751L0 751L0 704L0 704L0 657L0 657L0 610L0 610L0 563L0 563L0 517L0 517L0 470L0 470L0 423L0 423L0 376L0 376L0 329L0 329L0 282L0 282L0 235L0 235L0 188L0 188L0 141L0 141L0 94L0 94L0 47L0 47L0 0L0 0Z" fill="#560090"></path></svg>