<svg id="visual" viewBox="0 0 1920 1080" width="1920" height="1080" xmlns="http://www.w3.org/2000/svg" xmlns:xlink="http://www.w3.org/1999/xlink" version="1.1"><path d="M0 217L29.2 206.2C58.3 195.3 116.7 173.7 174.8 175.5C233 177.3 291 202.7 349.2 208.2C407.3 213.7 465.7 199.3 523.8 190.3C582 181.3 640 177.7 698.2 184.8C756.3 192 814.7 210 872.8 208.2C931 206.3 989 184.7 1047.2 166.7C1105.3 148.7 1163.7 134.3 1221.8 139.7C1280 145 1338 170 1396.2 166.3C1454.3 162.7 1512.7 130.3 1570.8 134C1629 137.7 1687 177.3 1745.2 188.2C1803.3 199 1861.7 181 1890.8 172L1920 163L1920 0L1890.8 0C1861.7 0 1803.3 0 1745.2 0C1687 0 1629 0 1570.8 0C1512.7 0 1454.3 0 1396.2 0C1338 0 1280 0 1221.8 0C1163.7 0 1105.3 0 1047.2 0C989 0 931 0 872.8 0C814.7 0 756.3 0 698.2 0C640 0 582 0 523.8 0C465.7 0 407.3 0 349.2 0C291 0 233 0 174.8 0C116.7 0 58.3 0 29.2 0L0 0Z" fill="#4e88e8"></path><path d="M0 519L29.2 535.3C58.3 551.7 116.7 584.3 174.8 568.2C233 552 291 487 349.2 449.2C407.3 411.3 465.7 400.7 523.8 398.8C582 397 640 404 698.2 414.8C756.3 425.7 814.7 440.3 872.8 453C931 465.7 989 476.3 1047.2 470.8C1105.3 465.3 1163.7 443.7 1221.8 452.7C1280 461.7 1338 501.3 1396.2 508.5C1454.3 515.7 1512.7 490.3 1570.8 485C1629 479.7 1687 494.3 1745.2 512.3C1803.3 530.3 1861.7 551.7 1890.8 562.3L1920 573L1920 161L1890.8 170C1861.7 179 1803.3 197 1745.2 186.2C1687 175.3 1629 135.7 1570.8 132C1512.7 128.3 1454.3 160.7 1396.2 164.3C1338 168 1280 143 1221.8 137.7C1163.7 132.3 1105.3 146.7 1047.2 164.7C989 182.7 931 204.3 872.8 206.2C814.7 208 756.3 190 698.2 182.8C640 175.7 582 179.3 523.8 188.3C465.7 197.3 407.3 211.7 349.2 206.2C291 200.7 233 175.3 174.8 173.5C116.7 171.7 58.3 193.3 29.2 204.2L0 215Z" fill="#5d98f4"></path><path d="M0 746L29.2 749.7C58.3 753.3 116.7 760.7 174.8 771.5C233 782.3 291 796.7 349.2 798.5C407.3 800.3 465.7 789.7 523.8 802.3C582 815 640 851 698.2 861.7C756.3 872.3 814.7 857.7 872.8 821.7C931 785.7 989 728.3 1047.2 714C1105.3 699.7 1163.7 728.3 1221.8 737.3C1280 746.3 1338 735.7 1396.2 733.8C1454.3 732 1512.7 739 1570.8 749.7C1629 760.3 1687 774.7 1745.2 771.2C1803.3 767.7 1861.7 746.3 1890.8 735.7L1920 725L1920 571L1890.8 560.3C1861.7 549.7 1803.3 528.3 1745.2 510.3C1687 492.3 1629 477.7 1570.8 483C1512.7 488.3 1454.3 513.7 1396.2 506.5C1338 499.3 1280 459.7 1221.8 450.7C1163.7 441.7 1105.3 463.3 1047.2 468.8C989 474.3 931 463.7 872.8 451C814.7 438.3 756.3 423.7 698.2 412.8C640 402 582 395 523.8 396.8C465.7 398.7 407.3 409.3 349.2 447.2C291 485 233 550 174.8 566.2C116.7 582.3 58.3 549.7 29.2 533.3L0 517Z" fill="#6da8ff"></path><path d="M0 908L29.2 902.7C58.3 897.3 116.7 886.7 174.8 892.2C233 897.7 291 919.3 349.2 917.5C407.3 915.7 465.7 890.3 523.8 893.8C582 897.3 640 929.7 698.2 942.3C756.3 955 814.7 948 872.8 926.5C931 905 989 869 1047.2 856.3C1105.3 843.7 1163.7 854.3 1221.8 861.5C1280 868.7 1338 872.3 1396.2 868.7C1454.3 865 1512.7 854 1570.8 868.3C1629 882.7 1687 922.3 1745.2 920.7C1803.3 919 1861.7 876 1890.8 854.5L1920 833L1920 723L1890.8 733.7C1861.7 744.3 1803.3 765.7 1745.2 769.2C1687 772.7 1629 758.3 1570.8 747.7C1512.7 737 1454.3 730 1396.2 731.8C1338 733.7 1280 744.3 1221.8 735.3C1163.7 726.3 1105.3 697.7 1047.2 712C989 726.3 931 783.7 872.8 819.7C814.7 855.7 756.3 870.3 698.2 859.7C640 849 582 813 523.8 800.3C465.7 787.7 407.3 798.3 349.2 796.5C291 794.7 233 780.3 174.8 769.5C116.7 758.7 58.3 751.3 29.2 747.7L0 744Z" fill="#88b5ff"></path><path d="M0 1081L29.2 1081C58.3 1081 116.7 1081 174.8 1081C233 1081 291 1081 349.2 1081C407.3 1081 465.7 1081 523.8 1081C582 1081 640 1081 698.2 1081C756.3 1081 814.7 1081 872.8 1081C931 1081 989 1081 1047.2 1081C1105.3 1081 1163.7 1081 1221.8 1081C1280 1081 1338 1081 1396.2 1081C1454.3 1081 1512.7 1081 1570.8 1081C1629 1081 1687 1081 1745.2 1081C1803.3 1081 1861.7 1081 1890.8 1081L1920 1081L1920 831L1890.8 852.5C1861.7 874 1803.3 917 1745.2 918.7C1687 920.3 1629 880.7 1570.8 866.3C1512.7 852 1454.3 863 1396.2 866.7C1338 870.3 1280 866.7 1221.8 859.5C1163.7 852.3 1105.3 841.7 1047.2 854.3C989 867 931 903 872.8 924.5C814.7 946 756.3 953 698.2 940.3C640 927.7 582 895.3 523.8 891.8C465.7 888.3 407.3 913.7 349.2 915.5C291 917.3 233 895.7 174.8 890.2C116.7 884.7 58.3 895.3 29.2 900.7L0 906Z" fill="#a0c3ff"></path></svg>